<svg width="124" height="31" viewBox="0 0 124 31" fill="none" xmlns="http://www.w3.org/2000/svg">
<g clip-path="url(#clip0_822_2495)">
<path d="M70.2938 10.1046C70.2938 6.48692 70.3564 3.11871 70.5442 0L60.9672 1.80885V2.68209L61.9061 2.80684C62.5946 2.86922 63.0328 3.11871 63.2832 3.49296C63.5336 3.92958 63.7213 4.55332 63.8465 5.48893C63.9717 7.29779 64.0969 11.4145 64.0343 17.9014C64.0343 24.326 63.9717 28.3803 63.8465 29.9396C67.2892 30.6881 69.9808 31 71.9838 31C75.7395 31 78.6815 29.9396 80.8097 27.7565C82.9379 25.6358 84.0646 22.6419 84.0646 18.9618C84.0646 16.0302 83.2509 13.5976 81.6234 11.664C79.996 9.73038 77.9303 8.79477 75.4891 8.79477C73.8617 8.79477 72.1716 9.23139 70.2938 10.1046ZM70.4816 29.3159C70.3564 27.3199 70.2312 21.332 70.2312 11.5392C70.7945 11.3521 71.5457 11.2274 72.4846 11.2274C73.9869 11.2274 75.1762 11.9759 76.0525 13.5352C76.9288 15.0946 77.367 16.9658 77.367 19.336C77.367 22.2676 76.8662 24.6378 75.8647 26.6338C74.8632 28.5674 73.6113 29.5654 72.0464 29.5654C71.5457 29.4406 71.0449 29.3783 70.4816 29.3159ZM25.0379 0.623742H0V1.87123L1.31449 1.99598C2.316 2.1831 3.00454 2.55734 3.44271 3.11871C3.88087 3.74245 4.13125 4.74044 4.19384 6.11268C4.6946 12.8491 4.6946 19.1489 4.19384 24.9497C4.06865 26.3219 3.81827 27.3199 3.44271 27.9437C3.00454 28.5674 2.316 28.9416 1.31449 29.0664L0 29.2535V30.501H16.1494V29.2535L14.4594 29.1288C13.4578 29.004 12.7693 28.5674 12.3311 28.006C11.893 27.3823 11.6426 26.3843 11.58 25.0121C11.3922 22.5171 11.267 19.6479 11.267 16.4668L14.6471 16.5292C16.4624 16.5915 17.7143 17.9638 18.3402 20.7083H19.5921V10.5412H18.3402C17.7143 13.2233 16.525 14.5956 14.6471 14.6579L11.267 14.7203C11.267 9.10664 11.3922 5.11469 11.58 2.68209H16.525C20.0303 2.68209 22.4089 4.92757 23.786 9.41851L25.2882 8.98189L25.0379 0.623742ZM22.0959 19.835C22.0959 23.0785 23.0348 25.7606 24.8501 27.8813C26.6653 30.002 29.3569 31 32.737 31C36.1171 31 38.8713 29.9396 40.8743 27.7565C42.8773 25.6358 43.8163 22.9537 43.8163 19.7103C43.8163 16.4668 42.8773 13.7847 41.0621 11.664C39.2468 9.54326 36.5553 8.54527 33.1752 8.54527C29.7951 8.54527 27.0409 9.60563 25.0379 11.7887C23.0348 13.9095 22.0959 16.5915 22.0959 19.835ZM36.0545 12.7243C36.8056 14.5332 37.1186 16.9034 37.1186 19.7726C37.1186 26.3843 35.7415 29.6278 33.05 29.6278C31.6729 29.6278 30.6088 28.6922 29.8576 26.8209C29.1065 24.9497 28.7935 22.5795 28.7935 19.7726C28.7935 13.2233 30.1706 9.97988 32.8622 9.97988C34.2393 9.91751 35.3034 10.8531 36.0545 12.7243ZM88.947 27.8813C91.0126 29.9396 93.6416 31 96.7713 31C98.7118 31 100.402 30.6258 101.904 29.8149C103.406 29.0664 104.596 28.1308 105.409 27.008L104.783 26.2596C103.406 27.3199 101.841 27.8189 100.026 27.8189C97.5225 27.8189 95.582 27.008 94.2675 25.3239C92.8905 23.6398 92.2645 21.5191 92.3897 18.7746H105.785C105.785 15.7807 105.034 13.3481 103.469 11.4145C101.904 9.54326 99.7133 8.60765 96.8965 8.60765C93.3912 8.60765 90.6996 9.73038 88.7592 11.9135C86.8188 14.0966 85.8799 16.7787 85.8799 19.9598C85.8799 23.2032 86.8814 25.8229 88.947 27.8813ZM93.579 12.2254C94.2675 10.7284 95.1439 9.97988 96.3332 9.97988C98.211 9.97988 99.1499 12.3501 99.1499 17.1529L92.5149 17.2777C92.5775 15.4064 92.8905 13.7223 93.579 12.2254ZM122.623 9.73038C120.933 8.98189 118.805 8.54527 116.238 8.54527C113.609 8.54527 111.544 9.23139 109.979 10.5412C108.414 11.8511 107.6 13.4728 107.6 15.4064C107.6 17.0905 108.101 18.4004 109.04 19.336C109.979 20.2716 111.481 21.0825 113.421 21.7686C115.174 22.3924 116.426 23.0161 117.052 23.5775C117.678 24.2012 118.054 24.8873 118.054 25.8229C118.054 26.6962 117.741 27.507 117.052 28.1308C116.426 28.8169 115.55 29.1288 114.423 29.1288C111.669 29.1288 109.603 27.1328 108.164 23.1408L107.099 23.4527L107.35 29.6901C109.603 30.5634 112.107 31 114.861 31C117.741 31 119.931 30.3763 121.559 29.0664C123.186 27.8189 124 26.0101 124 23.7646C124 22.2676 123.624 21.0201 122.811 20.0845C121.997 19.1489 120.682 18.338 118.805 17.5895C116.739 16.841 115.299 16.1549 114.548 15.5312C113.797 14.9074 113.421 14.159 113.421 13.2233C113.421 12.2877 113.672 11.5392 114.235 10.9155C114.799 10.2918 115.487 10.0423 116.363 10.0423C118.867 10.0423 120.682 11.8511 121.809 15.4064L122.873 15.0946L122.623 9.73038ZM62.4069 9.16902C61.5305 8.7324 60.5916 8.54527 59.5275 8.54527C58.4634 8.54527 57.3993 8.98189 56.21 9.85513C55.0207 10.7284 54.1444 11.9135 53.4558 13.5352L53.5184 8.54527L44.004 10.4165V11.2897L44.943 11.3521C46.1323 11.4769 46.8208 12.4125 46.946 14.0966C47.3216 17.9638 47.3216 22.0805 46.946 26.4467C46.8208 28.1308 46.1323 29.004 44.943 29.1911L44.004 29.3159V30.501H57.2741V29.3159L55.584 29.1911C54.3948 29.0664 53.7062 28.1308 53.581 26.4467C53.2054 22.829 53.1429 18.9618 53.4558 14.9698C53.8314 14.3461 54.6451 13.9718 55.897 13.8471C57.1489 13.7223 58.5886 14.0966 60.0909 14.9698L62.4069 9.16902Z" fill="white" fill-opacity="0.5"/>
</g>
<defs>
<clipPath id="clip0_822_2495">
<rect width="124" height="31" fill="white"/>
</clipPath>
</defs>
</svg>
