<svg width="113" height="35" viewBox="0 0 113 35" fill="none" xmlns="http://www.w3.org/2000/svg">
<g clip-path="url(#clip0_822_2474)">
<mask id="mask0_822_2474" style="mask-type:luminance" maskUnits="userSpaceOnUse" x="0" y="0" width="113" height="35">
<path d="M112.344 0.93811H0.130859V34.9803H112.344V0.93811Z" fill="white"/>
</mask>
<g mask="url(#mask0_822_2474)">
<path d="M68.4726 20.073C68.4726 20.073 68.2476 19.2003 68.2476 18.5534V8.43351H72.083V27.9258L59.8035 17.1809C59.1465 16.591 58.7577 15.9323 58.7577 15.9323C58.7577 15.9323 58.9524 16.6586 58.9524 17.287L58.949 27.4858H55.1113V8.07007L67.2781 18.5991C67.9306 19.1831 68.4726 20.073 68.4726 20.073Z" fill="white" fill-opacity="0.5"/>
<path d="M103.203 8.43567C109.281 8.43567 110.838 10.9685 110.838 14.6088C110.838 17.2471 108.999 19.8321 105.291 20.138L104.885 20.1588C104.885 20.1588 105.243 20.2258 105.618 20.607L112.347 27.4857H107.147L97.7529 17.406H102.43C106.621 17.406 106.742 15.073 106.771 14.4849C106.849 12.9707 106.391 11.76 103.196 11.76H97.8471V27.4857H93.8613V8.43567H103.203Z" fill="white" fill-opacity="0.5"/>
<path d="M73.8066 18.2329C73.8066 10.2521 80.1282 8.15503 85.442 8.15503C87.5696 8.15503 89.4537 8.35661 91.4365 8.80068L91.4421 12.8477C90.302 12.4772 88.0123 11.6637 85.4426 11.6637C80.4048 11.6637 77.9585 13.7317 77.9585 18.2323C77.9585 21.9188 80.5955 24.2673 85.4426 24.2673C88.0123 24.2673 90.5853 23.621 91.8315 23.1354L91.8242 27.0615C89.8436 27.5032 87.5702 27.7759 85.4426 27.7759C79.7668 27.7765 73.8066 24.8613 73.8066 18.2329Z" fill="white" fill-opacity="0.5"/>
<path d="M30.6501 8.92542L34.3907 12.6481C34.2886 12.6961 34.1708 12.7554 34.0322 12.8289C33.8156 12.9481 33.5575 13.1076 33.2484 13.3341C32.6318 13.7817 31.8283 14.4967 30.8004 15.6688L23.4898 23.8441C22.2369 25.2433 20.9638 26.352 19.78 26.9384L16.0371 23.2145C16.1392 23.1641 16.257 23.1084 16.3934 23.0313C16.61 22.9145 16.868 22.7526 17.1772 22.5297C17.7921 22.0779 18.5978 21.3671 19.6268 20.1931L26.9358 12.0315C28.1892 10.6341 29.4646 9.51178 30.6501 8.92542Z" fill="white" fill-opacity="0.5"/>
<path d="M16.1656 28.6874C17.819 28.6874 19.339 28.3411 20.3702 27.7761C20.8415 27.5164 21.5142 27.0694 22.0927 26.5927C22.6689 26.1178 23.4858 25.3779 24.1765 24.6018L31.4945 16.4496C33.3404 14.3953 34.4496 13.7609 35.1229 13.5113L38.8764 17.2684C38.0932 18.1536 28.7509 28.6678 28.7509 28.6678C28.114 29.3947 27.443 30.096 26.9869 30.5377C26.5487 30.9646 25.7991 31.6008 25.412 31.9002C23.2148 33.6012 20.2799 34.9808 16.3277 34.9808C7.37254 34.9808 0.130859 27.2787 0.130859 18.4097C0.130859 7.40759 8.26576 1.02341 15.6746 1.02341C17.9458 0.952268 19.7682 1.35602 21.209 1.87302C22.5404 2.35147 23.5458 2.93013 24.2752 3.3238C23.4129 3.90779 22.5786 4.70404 21.2034 6.25621L19.7009 7.96075C19.3552 7.82024 17.8224 7.25522 15.8547 7.31866C11.1008 7.46688 5.90143 11.5388 6.08882 18.2188C6.26332 24.4648 11.1356 28.6874 16.1656 28.6874Z" fill="white" fill-opacity="0.5"/>
<path d="M30.002 8.14321C29.5291 8.40467 28.858 8.85052 28.2762 9.3272C27.7017 9.8021 26.8853 10.542 26.1924 11.3163L18.8761 19.4702C17.0302 21.5246 15.9204 22.1566 15.2477 22.4068L11.4941 18.6532C12.2796 17.7657 21.6203 7.25329 21.6203 7.25329C22.2588 6.52641 22.9281 5.82503 23.3843 5.38155C23.8225 4.95468 24.572 4.32088 24.9625 4.0191C27.1557 2.31812 30.0946 0.938477 34.0468 0.938477C43.0014 0.938477 50.2397 8.64123 50.2397 17.5078C50.2397 28.5135 42.1065 34.8941 34.6959 34.8941C32.4264 34.967 30.6024 34.5633 29.1638 34.0421C27.829 33.5654 26.8197 32.9832 26.092 32.5913C27.0031 31.9415 27.783 31.2289 29.1689 29.6643L30.6691 27.9597C31.0148 28.0979 32.5482 28.6635 34.5175 28.6018C39.2697 28.4518 44.4708 24.3757 44.2834 17.6975C44.1073 11.4544 39.2316 7.23017 34.2044 7.23017C32.5482 7.23017 31.035 7.57819 30.002 8.14321Z" fill="white" fill-opacity="0.5"/>
</g>
</g>
<defs>
<clipPath id="clip0_822_2474">
<rect width="113" height="35" fill="white"/>
</clipPath>
</defs>
</svg>
