<svg width="222" height="43" viewBox="0 0 222 43" fill="none" xmlns="http://www.w3.org/2000/svg">
<g clip-path="url(#clip0_822_2514)">
<path d="M147.3 36.6299C150.236 36.6929 153.077 35.5889 155.2 33.5599L159.12 37.7799C156.53 40.4399 152.95 42.4099 147.37 42.4099C137.81 42.4099 131.64 36.0699 131.64 27.4899C131.602 25.567 131.943 23.6553 132.644 21.8642C133.345 20.0732 134.392 18.438 135.726 17.0522C137.06 15.6665 138.654 14.5573 140.417 13.7881C142.18 13.019 144.077 12.6051 146 12.5699H146.53C156.02 12.5699 161.4 19.7899 160.93 29.8099H138.47C139.27 33.9699 142.19 36.6199 147.3 36.6199M154.14 24.9999C153.54 21.1199 151.22 18.2599 146.57 18.2599C144.617 18.1458 142.693 18.7787 141.189 20.0302C139.685 21.2818 138.713 23.0584 138.47 24.9999H154.14Z" fill="white" fill-opacity="0.5"/>
<path d="M0 36.32L17.27 18.78H0.41V13.27H25.27V18.89L8 36.43H25.5V41.93H0V36.32Z" fill="white" fill-opacity="0.5"/>
<path d="M44.89 36.6299C47.8259 36.6929 50.667 35.5889 52.79 33.5599L56.71 37.7799C54.12 40.4399 50.54 42.4099 44.96 42.4099C35.4 42.4099 29.23 36.0699 29.23 27.4899C29.1915 25.5686 29.532 23.6585 30.2319 21.8688C30.9318 20.079 31.9774 18.4447 33.3091 17.0592C34.6408 15.6737 36.2323 14.5641 37.9929 13.7938C39.7535 13.0235 41.6486 12.6077 43.57 12.5699H44.1C53.59 12.5699 58.97 19.7899 58.5 29.8099H36.06C36.86 33.9699 39.78 36.6199 44.89 36.6199M51.73 24.9999C51.13 21.1199 48.81 18.2599 44.16 18.2599C42.2066 18.1458 40.283 18.7787 38.7789 20.0302C37.2748 21.2818 36.3028 23.0584 36.06 24.9999H51.73Z" fill="white" fill-opacity="0.5"/>
<path d="M95.7699 27.52C95.7699 18.35 102.62 12.62 110.16 12.62C111.969 12.5966 113.761 12.9694 115.411 13.7122C117.061 14.4551 118.528 15.5499 119.71 16.92V0H125.81V41.85H119.71V37.85C118.55 39.2775 117.085 40.4259 115.421 41.21C113.758 41.9942 111.939 42.3941 110.1 42.38C108.202 42.3656 106.326 41.9776 104.578 41.2381C102.831 40.4986 101.246 39.4221 99.9143 38.07C98.5827 36.718 97.5305 35.1169 96.8177 33.3582C96.1049 31.5995 95.7454 29.7176 95.7599 27.82C95.7599 27.7 95.7599 27.59 95.7599 27.48M120.05 27.42C120.012 24.9929 119.016 22.6792 117.279 20.9832C115.542 19.2871 113.206 18.3462 110.779 18.3653C108.351 18.3844 106.03 19.3621 104.32 21.0853C102.61 22.8085 101.651 25.1376 101.651 27.565C101.651 29.9924 102.61 32.3215 104.32 34.0447C106.03 35.7679 108.351 36.7456 110.779 36.7647C113.206 36.7838 115.542 35.8429 117.279 34.1468C119.016 32.4508 120.012 30.1371 120.05 27.71V27.42Z" fill="white" fill-opacity="0.5"/>
<path d="M164.88 35.77L170.4 32.9C171.132 34.201 172.206 35.2777 173.504 36.0142C174.803 36.7507 176.278 37.1192 177.77 37.08C181.22 37.08 183.01 35.31 183.01 33.3C183.01 31.01 179.67 30.49 176.01 29.75C171.12 28.75 166.01 27.11 166.01 21.21C166.01 16.68 170.32 12.5 177.12 12.55C182.47 12.55 186.44 14.67 188.69 18.11L183.64 20.92C182.932 19.8714 181.968 19.0208 180.839 18.4486C179.71 17.8764 178.454 17.6016 177.19 17.65C173.91 17.65 172.24 19.26 172.24 21.09C172.24 23.15 174.89 23.73 179.03 24.64C183.75 25.64 189.1 27.22 189.1 33.18C189.1 37.18 185.65 42.47 177.47 42.41C171.47 42.41 167.28 40 164.87 35.76" fill="white" fill-opacity="0.5"/>
<path d="M205.68 29.12L200.84 34.39V41.85H194.74V0H200.84V27.4L213.79 13.18H221.22L209.99 25.45L221.5 41.85H214.6L205.68 29.12Z" fill="white" fill-opacity="0.5"/>
<path d="M77.33 12.61C70.08 12.61 64.01 17.31 64.01 25.11V41.85H70.23V25.85C70.23 21.15 72.93 18.34 77.54 18.34C82.15 18.34 84.45 21.15 84.45 25.85V41.85H90.64V25.1C90.64 17.3 84.57 12.6 77.32 12.6" fill="white" fill-opacity="0.5"/>
</g>
<defs>
<clipPath id="clip0_822_2514">
<rect width="221.5" height="42.41" fill="white"/>
</clipPath>
</defs>
</svg>
