<svg width="109" height="34" viewBox="0 0 109 34" fill="none" xmlns="http://www.w3.org/2000/svg">
<g clip-path="url(#clip0_822_2497)">
<path d="M70.58 7.64C68.8286 7.62415 67.112 8.12953 65.6486 9.09187C64.1851 10.0542 63.041 11.43 62.3615 13.0444C61.6821 14.6587 61.4981 16.4387 61.833 18.1579C62.1679 19.8771 63.0065 21.4578 64.2421 22.6991C65.4778 23.9405 67.0547 24.7862 68.7724 25.129C70.49 25.4717 72.2708 25.2958 73.8882 24.6238C75.5056 23.9517 76.8867 22.8138 77.8557 21.3548C78.8247 19.8957 79.3379 18.1815 79.33 16.43C79.3327 15.2783 79.1084 14.1374 78.6701 13.0723C78.2318 12.0073 77.588 11.039 76.7755 10.2228C75.963 9.40658 74.9977 8.75838 73.9346 8.31522C72.8716 7.87206 71.7317 7.64262 70.58 7.64ZM70.65 21.69C69.9737 21.6987 69.3025 21.5723 68.6758 21.3181C68.049 21.064 67.4793 20.6872 67 20.21C66.401 19.6177 65.9575 18.8867 65.7086 18.082C65.4597 17.2772 65.4133 16.4234 65.5734 15.5964C65.7334 14.7694 66.0951 13.9946 66.6263 13.3408C67.1575 12.687 67.8418 12.1744 68.6185 11.8484C69.3953 11.5223 70.2405 11.393 71.0791 11.4718C71.9178 11.5507 72.7241 11.8352 73.4265 12.3002C74.1289 12.7653 74.7057 13.3964 75.1058 14.1377C75.5058 14.879 75.7168 15.7076 75.72 16.55C75.69 17.8952 75.1456 19.1778 74.1988 20.1339C73.2521 21.0899 71.9749 21.6468 70.63 21.69H70.65ZM90 11.8C89.406 11.8078 88.8194 11.9329 88.2739 12.168C87.7284 12.4032 87.2348 12.7438 86.8213 13.1703C86.4078 13.5968 86.0826 14.1008 85.8644 14.6533C85.6463 15.2059 85.5394 15.7961 85.55 16.39V24.78H81.74L81.69 8.13H85.5V10.74C86.046 9.9424 86.7746 9.28673 87.6252 8.82754C88.4757 8.36835 89.4236 8.11892 90.39 8.1H91.5V11.8H90ZM52 8.28L54.85 19.7L57.85 8.25H61.66L56.95 24.95H53.25L50.25 13.31L47.36 25H43.65L38.65 8.36H42.36L45.7 19.75L48.37 8.3L52 8.28ZM102.67 15.66C104.008 14.8784 105.117 13.7598 105.887 12.4158C106.657 11.0717 107.062 9.54915 107.06 8H103.25C103.266 9.34391 102.749 10.6394 101.812 11.6028C100.875 12.5662 99.5939 13.1189 98.25 13.14H97.7L97.66 0H93.85L94 24.74H97.81V16.9H98.25C98.4518 16.8779 98.6556 16.9177 98.8342 17.0141C99.0128 17.1106 99.1579 17.2591 99.25 17.44L104.62 24.71H109.08L102.67 15.66Z" fill="white" fill-opacity="0.5"/>
<path d="M29.85 7.84C25.71 7.84 22.57 10.59 21.39 14.95C19.5042 12.014 18.0273 8.83479 17 5.5H12.65V17.04C12.65 18.138 12.2138 19.191 11.4374 19.9674C10.661 20.7438 9.608 21.18 8.51 21.18C7.412 21.18 6.35898 20.7438 5.58258 19.9674C4.80618 19.191 4.37 18.138 4.37 17.04V5.5L0 5.58L0.05 17.12C0.0460515 18.244 0.264031 19.3577 0.691438 20.3973C1.11885 21.4369 1.74727 22.3819 2.54068 23.1781C3.33408 23.9743 4.27686 24.606 5.31494 25.0371C6.35302 25.4681 7.46598 25.69 8.59 25.69C9.71363 25.6744 10.8231 25.4369 11.8547 24.9912C12.8862 24.5455 13.8196 23.9004 14.6011 23.0929C15.3826 22.2854 15.9968 21.3314 16.4085 20.2858C16.8202 19.2402 17.0212 18.1235 17 17V15C17.9147 16.8234 18.9818 18.5663 20.19 20.21L17.55 33.05L22 33L23.92 23.73C25.712 24.8706 27.7959 25.468 29.92 25.45C32.2092 25.3632 34.3752 24.3902 35.9603 22.7363C37.5455 21.0824 38.4259 18.8772 38.4155 16.5863C38.4051 14.2954 37.5048 12.0983 35.9047 10.4588C34.3046 8.8194 32.1299 7.866 29.84 7.8L29.85 7.84ZM29.91 21C28.0976 20.9524 26.3597 20.2692 25 19.07L25.43 17.33V17.23C25.75 15.38 26.71 12.23 29.98 12.23C31.1338 12.2273 32.2419 12.6811 33.0625 13.4922C33.883 14.3034 34.3494 15.4062 34.36 16.56C34.3107 17.7235 33.8258 18.8259 33.0014 19.6484C32.1771 20.4709 31.0736 20.9534 29.91 21Z" fill="white" fill-opacity="0.5"/>
</g>
<defs>
<clipPath id="clip0_822_2497">
<rect width="108.99" height="33.05" fill="white"/>
</clipPath>
</defs>
</svg>
