<svg width="431" height="80" viewBox="0 0 431 80" fill="none" xmlns="http://www.w3.org/2000/svg">
<g clip-path="url(#clip0_822_2766)">
<path fill-rule="evenodd" clip-rule="evenodd" d="M253.168 0C253.802 0.00273567 254.41 0.256777 254.858 0.70653C255.306 1.15628 255.557 1.76512 255.557 2.39979V58.4432L234 80H177.915C177.285 79.9838 176.687 79.7213 176.248 79.2688C175.809 78.8163 175.564 78.2099 175.567 77.5795V2.39979C175.567 1.77219 175.813 1.1695 176.252 0.72091C176.691 0.272319 177.288 0.0135259 177.915 0L253.168 0ZM220.233 27.7838C219.057 27.4767 217.848 27.3169 216.633 27.308L204.303 27.4218C204.053 27.4387 203.818 27.5455 203.641 27.7224C203.465 27.8992 203.358 28.1342 203.341 28.3838V52.33C203.358 52.5795 203.465 52.8145 203.641 52.9914C203.818 53.1682 204.053 53.275 204.303 53.292H210.292C210.54 53.2726 210.772 53.1648 210.947 52.9882C211.122 52.8115 211.227 52.5779 211.244 52.33V46.2271H214.595L218.795 52.8161C218.876 52.9659 218.997 53.0899 219.146 53.174C219.294 53.2581 219.462 53.299 219.633 53.292H227.566C227.65 53.291 227.732 53.267 227.803 53.2227C227.874 53.1783 227.931 53.1152 227.968 53.0404C228.006 52.9656 228.022 52.8819 228.015 52.7985C228.008 52.7152 227.978 52.6354 227.928 52.5679C226.604 50.6543 223.015 45.0272 222.891 44.7892L223.315 44.4582C223.59 44.2146 223.892 44.0029 224.215 43.8273C228.166 41.1999 228.642 35.8107 226.366 32.0972C225.693 30.9975 224.801 30.0475 223.746 29.3056C222.691 28.5638 221.495 28.0459 220.233 27.7838ZM216.633 39.7621H211.244V33.773H216.416C217.048 33.759 217.672 33.9239 218.215 34.2488C218.679 34.4765 219.063 34.8375 219.319 35.2854C219.575 35.7334 219.692 36.2477 219.653 36.7624C219.697 37.3095 219.57 37.8567 219.291 38.329C219.011 38.8013 218.592 39.1754 218.091 39.4001C217.641 39.6353 217.141 39.7594 216.633 39.7621Z" fill="white" fill-opacity="0.5"/>
<path fill-rule="evenodd" clip-rule="evenodd" d="M78.4381 80C78.8498 79.9921 79.2425 79.8249 79.5337 79.5337C79.8249 79.2425 79.9921 78.8498 80 78.4381L79.8759 1.56193C79.8706 1.15111 79.7057 0.758446 79.4162 0.466962C79.1266 0.175477 78.7351 0.00802196 78.3243 0L1.56193 0C1.14935 0.00535892 0.755172 0.17164 0.463406 0.463406C0.17164 0.755172 0.00535892 1.14935 0 1.56193L0 78.4381C0.00535892 78.8507 0.17164 79.2448 0.463406 79.5366C0.755172 79.8284 1.14935 79.9946 1.56193 80H78.4381ZM55.6814 52.2162V28.1459C55.6686 27.9243 55.5735 27.7155 55.4146 27.5604C55.2558 27.4054 55.0447 27.3154 54.8229 27.308H49.2165C49.0777 27.3029 48.9398 27.3323 48.8152 27.3937C48.6906 27.4551 48.5832 27.5465 48.5027 27.6597L39.8759 39.4001L31.3732 27.6597C31.2833 27.5569 31.174 27.4728 31.0515 27.4125C30.929 27.3521 30.7957 27.3166 30.6594 27.308H25.1461C25.0353 27.3051 24.9251 27.3249 24.8221 27.366C24.7192 27.4071 24.6257 27.4687 24.5473 27.5471C24.4689 27.6254 24.4073 27.7189 24.3662 27.8219C24.3251 27.9248 24.3054 28.035 24.3083 28.1459V52.33C24.3054 52.4408 24.3251 52.551 24.3662 52.6539C24.4073 52.7569 24.4689 52.8504 24.5473 52.9288C24.6257 53.0071 24.7192 53.0687 24.8221 53.1098C24.9251 53.1509 25.0353 53.1707 25.1461 53.1678H31.3525C31.4637 53.1722 31.5746 53.1535 31.6782 53.113C31.7818 53.0724 31.8759 53.0108 31.9546 52.9321C32.0333 52.8534 32.0949 52.7593 32.1355 52.6557C32.176 52.5521 32.1947 52.4412 32.1903 52.33V39.7621C32.4076 40.1138 34.9108 43.6204 37.052 46.6098C38.5725 48.6786 39.8966 50.6025 40.0931 50.8922C41.8826 48.2545 43.7342 45.7202 45.565 43.248L47.758 40.2379V52.2162C47.7551 52.327 47.7748 52.4372 47.8159 52.5402C47.857 52.6431 47.9187 52.7366 47.997 52.815C48.0754 52.8934 48.1689 52.955 48.2718 52.9961C48.3748 53.0372 48.485 53.0569 48.5958 53.0541H54.8022C54.9164 53.0628 55.0311 53.0474 55.139 53.009C55.2468 52.9705 55.3454 52.9098 55.4283 52.8308C55.5112 52.7518 55.5766 52.6563 55.6202 52.5504C55.6638 52.4445 55.6846 52.3307 55.6814 52.2162Z" fill="white" fill-opacity="0.5"/>
<path fill-rule="evenodd" clip-rule="evenodd" d="M166.217 80C166.629 79.9921 167.021 79.8249 167.313 79.5337C167.604 79.2425 167.771 78.8498 167.779 78.4381H167.655V1.56193C167.649 1.15111 167.485 0.758446 167.195 0.466962C166.905 0.175477 166.514 0.00802196 166.103 0L89.3407 0C88.9282 0.00535892 88.534 0.17164 88.2422 0.463406C87.9504 0.755172 87.7842 1.14935 87.7788 1.56193V78.4381C87.7868 78.8498 87.9539 79.2425 88.2451 79.5337C88.5363 79.8249 88.929 79.9921 89.3407 80H166.217ZM141.391 28.2803C141.393 28.1541 141.369 28.0288 141.321 27.9121C141.273 27.7953 141.202 27.6894 141.112 27.6006C141.022 27.5118 140.916 27.442 140.798 27.3952C140.681 27.3485 140.556 27.3259 140.429 27.3287V27.4425H134.223C134.097 27.441 133.972 27.465 133.855 27.513C133.738 27.561 133.632 27.632 133.543 27.7217C133.455 27.8115 133.385 27.9182 133.338 28.0355C133.291 28.1527 133.269 28.2782 133.271 28.4044V41.1999C133.31 41.9253 133.23 42.6521 133.034 43.3514C132.858 44.2797 132.391 45.128 131.701 45.7734C131.011 46.4187 130.134 46.8276 129.196 46.9408C127.711 47.3254 126.138 47.1563 124.769 46.465C123.78 45.9015 123.016 45.0135 122.607 43.9514C122.168 42.6819 121.964 41.3427 122.007 40V28.3838C122.01 28.2575 121.987 28.1321 121.94 28.0148C121.894 27.8975 121.824 27.7908 121.735 27.701C121.646 27.6113 121.54 27.5403 121.424 27.4923C121.307 27.4443 121.181 27.4204 121.055 27.4218H115.18C114.932 27.4411 114.7 27.5489 114.525 27.7256C114.35 27.9022 114.245 28.1359 114.228 28.3838V40.1138C114.189 41.3564 114.268 42.5999 114.466 43.8273C114.771 46.113 115.775 48.2484 117.342 49.9405C119.691 52.3102 122.861 53.6876 126.196 53.7885C127.796 53.8897 129.403 53.8099 130.985 53.5506C133.592 53.1832 136.018 52.0116 137.926 50.1991C139.032 49.1002 139.908 47.7929 140.505 46.3529C141.101 44.9129 141.406 43.3689 141.402 41.8102L141.391 28.2803Z" fill="white" fill-opacity="0.5"/>
<path fill-rule="evenodd" clip-rule="evenodd" d="M341.66 80C342.071 79.992 342.463 79.8245 342.752 79.533C343.042 79.2416 343.207 78.8489 343.212 78.4381V1.56193C343.207 1.15111 343.042 0.758446 342.752 0.466962C342.463 0.175477 342.071 0.00802196 341.66 0L264.898 0C264.485 0.00535892 264.091 0.17164 263.799 0.463406C263.508 0.755172 263.341 1.14935 263.336 1.56193V78.4381C263.344 78.8498 263.511 79.2425 263.802 79.5337C264.093 79.8249 264.486 79.9921 264.898 80H341.66ZM318.593 52.33L307.049 27.308H299.86L288.244 52.33C288.187 52.4137 288.155 52.5118 288.152 52.6129C288.148 52.7139 288.174 52.814 288.224 52.9014C288.275 52.9889 288.349 53.0603 288.439 53.1074C288.528 53.1546 288.629 53.1755 288.73 53.1678H295.671C295.894 53.1623 296.111 53.0918 296.295 52.9651C296.478 52.8383 296.621 52.6607 296.705 52.4541L297.74 49.8164H308.88L309.915 52.4541C310 52.66 310.143 52.8368 310.327 52.9634C310.51 53.09 310.726 53.161 310.949 53.1678H317.89C318.428 53.1678 318.666 52.692 318.593 52.33ZM303.212 36.4107L305.974 43.5893H300.46L303.212 36.4107Z" fill="white" fill-opacity="0.5"/>
<path fill-rule="evenodd" clip-rule="evenodd" d="M429.439 80C429.851 79.9921 430.244 79.8249 430.535 79.5337C430.826 79.2425 430.993 78.8498 431.001 78.4381V1.56193C430.996 1.14935 430.829 0.755172 430.538 0.463406C430.246 0.17164 429.852 0.00535892 429.439 0L352.728 0C352.316 0.00535892 351.922 0.17164 351.63 0.463406C351.338 0.755172 351.172 1.14935 351.167 1.56193V78.4381C351.174 78.8498 351.342 79.2425 351.633 79.5337C351.924 79.8249 352.317 79.9921 352.728 80H429.439ZM388.932 46.465V28.2596C388.932 27.6597 388.57 27.308 387.898 27.308H382.033C381.785 27.3246 381.551 27.43 381.375 27.6047C381.198 27.7794 381.09 28.0119 381.071 28.2596V52.2162C381.09 52.4639 381.198 52.6964 381.375 52.8711C381.551 53.0459 381.785 53.1512 382.033 53.1678H399.876C400.122 53.1488 400.353 53.0425 400.528 52.8679C400.702 52.6934 400.809 52.4623 400.828 52.2162V47.4269C400.811 47.179 400.706 46.9454 400.531 46.7688C400.356 46.5921 400.124 46.4843 399.876 46.465H388.932Z" fill="white" fill-opacity="0.5"/>
<path d="M234 80H213.881L234.569 59.157H254.812L234 80Z" fill="white" fill-opacity="0.5"/>
<path d="M255.557 58.4432H236.4C235.766 58.4432 235.157 58.6946 234.707 59.1425C234.257 59.5903 234.003 60.198 234 60.8327V80L255.557 58.4432Z" fill="white" fill-opacity="0.5"/>
</g>
<defs>
<clipPath id="clip0_822_2766">
<rect width="431.001" height="80" fill="white"/>
</clipPath>
</defs>
</svg>
