<svg width="754" height="173" viewBox="0 0 754 173" fill="none" xmlns="http://www.w3.org/2000/svg">
<g clip-path="url(#clip0_822_2500)">
<path d="M136.7 31.7C110.1 31.7 93.2 49.6 93.2 74.5C93.2 100.7 110 118.2 138.2 118.2C150.7 118.2 164.8 113.9 173.4 104.9L160.4 92.0999C155.8 96.8999 146 99.7 138.5 99.7C124.2 99.7 115.4 92.4 114.1 82.3H178C181.2 48.6 164.1 31.7 136.7 31.7ZM114.4 65.5999C117.4 54.9999 126.4 49.7 137.3 49.7C148.9 49.7 157.2 54.9999 158.6 65.5999H114.4Z" fill="white" fill-opacity="0.5"/>
<path d="M218.6 98.8C212.3 98.8 208 95 208 87.2V51.8H230.8V34.4H208.2V11.1L187.9 13.3V34.4V51.8V87.2C187.9 107.6 199.5 117.8 217.3 117.1C223.1 117 228.8 115.8 234.1 113.6L228.5 96.3C225.3 97.9 222 98.7 218.6 98.8Z" fill="white" fill-opacity="0.5"/>
<path d="M372.1 32C363.8 32 355.3 33.5 349 43.6L347.5 34.1H328.7V116H349V72.9C349 57.8 358.8 52.2 369.4 52.2C376.1 52.2 378.9 53 383 56.5L392.1 38.9C387.7 34.4 380.5 32 372.1 32Z" fill="white" fill-opacity="0.5"/>
<path d="M431.7 32.5C405.6 32.5 389.4 51.8 389.4 75.2C389.4 98.8 405.3 117.9 431.9 117.9C458.5 117.9 474.6 98.8 474.6 75.2C474.5 51.8 457.8 32.5 431.7 32.5ZM431.9 99.3C417.1 99.3 409.7 87.7 409.7 75.2C409.7 62.9 417.3 51 431.9 51C445.5 51 454.1 63 454.1 75.2C454.1 87.7 446.6 99.3 431.9 99.3Z" fill="white" fill-opacity="0.5"/>
<path d="M544.1 76.0999C544.1 88.4999 535.6 99 523.2 99C510.2 99 503.4 89.4999 503.4 77.0999V34.2H483.1V77.1999C483.1 102.6 497.4 117.4 517 117.4C528.5 117.4 536.3 113.4 544.7 105.1L546 116.2H564.1V34.2H544V76.0999H544.1Z" fill="white" fill-opacity="0.5"/>
<path d="M622.1 32.9C611.8 32.9 603.5 37.1 595.2 45.2L593.9 34H575.8V116H595.9V74.2C595.9 61.7 604.4 51.3 616.8 51.3C629.8 51.3 636.6 60.8 636.6 73.2V116H656.9V73C656.8 47.3 641.4 32.9 622.1 32.9Z" fill="white" fill-opacity="0.5"/>
<path d="M733.4 0V45.3C728.6 36.8 715.1 32.2 706.5 32.2C682.6 32.2 664.8 46.8 664.8 75C664.8 101.9 682.9 117.8 707 117.8C717 117.8 727.1 114.5 733.4 104.7L734.7 116H753.6V0H733.4ZM708.3 99.2C695.3 99.2 685.1 89.4 685.1 75.1C685.1 60.3 695.4 51.2 708.3 51.2C721.2 51 731.8 61.3 732 74.2C732 74.5 732 74.8 732 75.1C732.1 89.8 721.1 99.2 708.3 99.2Z" fill="white" fill-opacity="0.5"/>
<path d="M303.4 35.5C293.7 30.1 274.4 29.7 263.9 32.5C250.6 36.1 242.5 46.3 241.9 58.9L261.1 63.3C262.6 53.7 265.5 50.4 273.7 49.1C279.7 48.1 288.2 48.3 292.9 53.1C295.5 55.8 295.8 57 295.4 61.4C295.2 63.5 291 64.2 288.5 64.7C279.5 66.7 265.4 67.7 256.6 70.1C239.2 74.9 236.7 96 245.5 106.9C254.5 118.1 277.1 120.7 289.8 112.3C291.7 111 293.6 109.7 296 108V115.8H316.9C316.9 108.8 316.9 101.6 316.9 94.8C317 82.4 317.4 69.9 317 57.5C316.7 48.3 311.5 39.9 303.4 35.5ZM287.5 97.2C284.8 98.7 281.9 99.6 278.9 100.1C275.1 100.8 271.2 101.5 267.4 100.7C264.8 100.1 262.1 98.8 260.7 96.5C259.9 95.1 259.5 93.5 259.6 91.9C259.7 90.4 260.3 88.9 261.3 87.7C262.5 86.3 264 85.2 265.7 84.6C271 82.3 276.9 81.6 282.6 81L292.1 80L294.5 79.7L295.6 79.6C296 79.6 296.1 79.5 296.2 79.9C296.2 81.3 296.1 82.7 295.9 84.1C295.7 85.5 295.4 86.8 294.9 88.1C293.8 91.2 291.8 94 289.2 96C288.5 96.5 288 96.9 287.5 97.2Z" fill="white" fill-opacity="0.5"/>
<path d="M42.5 117.9C15.9 117.9 0 98.8 0 75.2C0 51.8 16.3 32.5 42.3 32.5H93C93 32.5 90.8 45.8 78.2 50.9H42.6C28 51 20.3 62.9 20.3 75.2C20.3 87.6 27.8 99.3 42.5 99.3C57.2 99.3 64.7 87.7 64.7 75.2C64.7 68.5 62.1 62 57.5 57.2H81.5C83.9 62.9 85.2 69 85.2 75.2C85.2 88.6 80 100.6 70.5 108.4C82.2 115.3 85.2 124.8 85.2 134.8C85.2 158.1 67.4 172.5 42.9 172.5C20 172.5 2.5 159.4 0.3 139.1L20.9 136.9C22.1 146.7 31.7 153 42.9 153C54.9 153 64.3 146.5 64.3 134.8C64.3 123.1 53.4 117.9 42.9 117.8L42.5 117.9Z" fill="white" fill-opacity="0.5"/>
</g>
<defs>
<clipPath id="clip0_822_2500">
<rect width="753.7" height="172.5" fill="white"/>
</clipPath>
</defs>
</svg>
