<svg width="127" height="25" viewBox="0 0 127 25" fill="none" xmlns="http://www.w3.org/2000/svg">
<g clip-path="url(#clip0_822_2485)">
<mask id="mask0_822_2485" style="mask-type:luminance" maskUnits="userSpaceOnUse" x="0" y="0" width="127" height="25">
<path d="M126.988 0.981445H0.90625V24.937H126.988V0.981445Z" fill="white"/>
</mask>
<g mask="url(#mask0_822_2485)">
<path fill-rule="evenodd" clip-rule="evenodd" d="M11.7828 17.4732L15.293 21.0598L12.3648 24.1787C11.4153 25.19 9.87547 25.19 8.92593 24.1787L1.6184 16.3957C0.668867 15.384 0.668867 13.7444 1.6184 12.733C2.56824 11.7217 4.10774 11.7217 5.05727 12.733L10.6454 18.6847L11.7828 17.4732ZM12.6953 16.5014L15.8043 13.1901L19.2429 16.8528L16.3801 19.9019L12.6953 16.5014Z" fill="white" fill-opacity="0.5"/>
<path fill-rule="evenodd" clip-rule="evenodd" d="M26.7596 19.8326L23.0957 16.4097L31.7057 7.2394C32.6553 6.22808 34.1948 6.22808 35.1446 7.2394C36.0941 8.25071 36.0941 9.89038 35.1446 10.902L26.7596 19.8326ZM25.6201 21.0462L22.6797 24.178C21.7298 25.1893 20.1903 25.1893 19.2408 24.178L6.77465 10.9007C5.82512 9.88908 5.82512 8.24942 6.77465 7.2381C7.72419 6.22646 9.26369 6.22646 10.2135 7.2381L20.9602 18.684L22.1689 17.3967L25.6201 21.0462Z" fill="white" fill-opacity="0.5"/>
<path fill-rule="evenodd" clip-rule="evenodd" d="M21.4776 15.5701L24.9002 11.8904L31.279 18.6842L36.8659 12.7339C37.8157 11.7225 39.3552 11.7225 40.3048 12.7339C41.2543 13.7455 41.2543 15.3852 40.3048 16.3965L32.9984 24.1782C32.0489 25.1895 30.5094 25.1895 29.5599 24.1782L21.4776 15.5701ZM20.0598 14.0599L11.9348 5.40638C10.9853 4.39507 10.9853 2.7554 11.9348 1.74408C12.8846 0.732442 14.4241 0.732442 15.3737 1.74408L23.5071 10.4066L20.0598 14.0599Z" fill="white" fill-opacity="0.5"/>
<path fill-rule="evenodd" clip-rule="evenodd" d="M29.9891 1.74506C29.0395 0.733743 27.5 0.733743 26.5502 1.74506L15.8047 13.1897L19.2436 16.8523L29.9891 5.40768C30.9386 4.39604 30.9386 2.75638 29.9891 1.74506Z" fill="white" fill-opacity="0.5"/>
<path fill-rule="evenodd" clip-rule="evenodd" d="M53.6055 3.53296H50.6152V22.2408H61.5715V19.4155H53.6055V3.53296ZM68.043 9.15805C69.8611 9.15805 71.0811 9.94709 71.7509 10.9143L71.8944 9.41258H74.478V22.2408H71.8944L71.7509 20.7391C71.0811 21.7063 69.8611 22.4953 68.043 22.4953C64.7657 22.4953 62.541 19.67 62.541 15.8267C62.541 11.9578 64.7657 9.15805 68.043 9.15805ZM68.665 11.856C66.7991 11.856 65.4595 13.4086 65.4595 15.8267C65.4595 18.2447 66.7991 19.7973 68.665 19.7973C70.1003 19.7973 70.9615 18.9828 71.6074 17.8883V13.765C70.9615 12.6705 70.1003 11.856 68.665 11.856ZM81.7151 5.11104H78.8445V9.41258H76.5719V12.0087H78.8445V17.7102C78.8445 20.8154 80.5908 22.4953 83.3418 22.4953C84.5379 22.4953 85.423 22.139 86.021 21.7317L85.2555 19.3392C84.8967 19.5682 84.3704 19.7464 83.6049 19.7464C82.4806 19.7464 81.7151 18.9828 81.7151 17.6847V12.0087H85.3512V9.41258H81.7151V5.11104ZM91.6075 5.11104H88.7369V9.41258H86.4643V12.0087H88.7369V17.7102C88.7369 20.8154 90.4831 22.4953 93.2342 22.4953C94.4303 22.4953 95.3154 22.139 95.9134 21.7317L95.1479 19.3392C94.7891 19.5682 94.2628 19.7464 93.4973 19.7464C92.373 19.7464 91.6075 18.9828 91.6075 17.6847V12.0087H95.2436V9.41258H91.6075V5.11104ZM100.71 9.41258H97.8398V22.2408H100.71V9.41258ZM99.2751 3.43115C98.2704 3.43115 97.5049 4.22019 97.5049 5.31467C97.5049 6.40914 98.2704 7.19818 99.2751 7.19818C100.304 7.19818 101.069 6.40914 101.069 5.31467C101.069 4.22019 100.304 3.43115 99.2751 3.43115ZM109.383 9.15805C105.675 9.15805 103.211 11.9578 103.211 15.8267C103.211 19.67 105.699 22.4953 109.407 22.4953C111.584 22.4953 113.234 21.4517 114.311 19.67L112.253 17.9647C111.679 18.9828 110.746 19.8228 109.431 19.8228C107.302 19.8228 106.129 18.0665 106.129 15.8267C106.129 13.5614 107.254 11.8306 109.407 11.8306C110.746 11.8306 111.631 12.6451 112.182 13.6632L114.263 11.9833C113.186 10.2016 111.584 9.15805 109.383 9.15805ZM121.333 9.15805C125.04 9.15805 126.858 12.1105 126.858 15.6994V16.7684H118.342C118.414 18.8046 119.562 19.9246 121.572 19.9246C122.983 19.9246 124.012 19.2628 124.562 18.4483L126.547 20.1791C125.351 21.7063 123.773 22.4953 121.548 22.4953C117.816 22.4953 115.424 19.6955 115.424 15.8521C115.424 11.9833 117.864 9.15805 121.333 9.15805ZM121.285 11.6015C119.586 11.6015 118.438 12.7978 118.342 14.5795H124.036C123.964 12.8232 123.007 11.6015 121.285 11.6015Z" fill="white" fill-opacity="0.5"/>
</g>
</g>
<defs>
<clipPath id="clip0_822_2485">
<rect width="127" height="25" fill="white"/>
</clipPath>
</defs>
</svg>
