<svg width="166" height="50" viewBox="0 0 166 50" fill="none" xmlns="http://www.w3.org/2000/svg">
<g clip-path="url(#clip0_822_2522)">
<path d="M41.2 49.4L133.5 41.4H33.2L41.2 49.4Z" fill="white" fill-opacity="0.5"/>
<path d="M154.9 8.40002C153.006 8.44425 151.166 9.03458 149.6 10.1V9.00002H143.4V36.2H149.6V20.3C149.556 19.6034 149.656 18.9053 149.892 18.2486C150.129 17.5919 150.498 16.9907 150.975 16.482C151.453 15.9732 152.03 15.5678 152.671 15.2906C153.311 15.0135 154.002 14.8705 154.7 14.8705C155.398 14.8705 156.089 15.0135 156.729 15.2906C157.37 15.5678 157.947 15.9732 158.425 16.482C158.902 16.9907 159.271 17.5919 159.508 18.2486C159.744 18.9053 159.844 19.6034 159.8 20.3V36.3H166V20.3C166 13.7 161.5 8.40002 154.9 8.40002Z" fill="white" fill-opacity="0.5"/>
<path d="M129.1 8.30005C121.9 8.30005 116.8 14.6 116.8 22.6C116.8 31 123.2 36.9001 129.7 36.9001C133 36.9001 137.1 35.8 140.6 30.8L135.1 27.6C130.9 33.8 123.8 30.7 123 24.4H140.8C142.4 14.8 136.1 8.30005 129.1 8.30005ZM123.4 19.1C124.7 12.8 133.3 12.4 134.5 19.1H123.4Z" fill="white" fill-opacity="0.5"/>
<path d="M103.6 27.2C103.545 28.4464 103.741 29.6913 104.178 30.8602C104.614 32.029 105.282 33.098 106.141 34.0033C106.999 34.9086 108.031 35.6317 109.176 36.1293C110.32 36.627 111.552 36.8891 112.8 36.9C114.908 36.8261 116.967 36.2428 118.8 35.2L114.8 29.7999C114.186 30.2382 113.454 30.482 112.7 30.5C112.288 30.4883 111.883 30.3918 111.51 30.2166C111.137 30.0414 110.804 29.7911 110.531 29.4815C110.259 29.1718 110.054 28.8094 109.928 28.4169C109.802 28.0244 109.759 27.6101 109.8 27.2V15.5H115.1V8.99995H109.8V2.19995H103.6V8.99995H100.3V15.5H103.6V27.2Z" fill="white" fill-opacity="0.5"/>
<path d="M86.7 36.9C88.5935 36.8558 90.434 36.2654 92 35.2V36.2H98.2V9H92V25C92.0436 25.6966 91.9441 26.3948 91.7075 27.0514C91.471 27.7081 91.1024 28.3093 90.6245 28.8181C90.1467 29.3268 89.5697 29.7322 88.9291 30.0094C88.2885 30.2865 87.5979 30.4295 86.9 30.4295C86.202 30.4295 85.5114 30.2865 84.8709 30.0094C84.2303 29.7322 83.6533 29.3268 83.1754 28.8181C82.6975 28.3093 82.329 27.7081 82.0924 27.0514C81.8559 26.3948 81.7563 25.6966 81.8 25V9H75.6V25C75.6 31.6 80.1 36.9 86.7 36.9Z" fill="white" fill-opacity="0.5"/>
<path d="M58.5 25.1L67.6999 36.3H76.3L64 21.8L74.5999 9H66L58.5 18.5V0H52.2V36.3H58.5V25.1Z" fill="white" fill-opacity="0.5"/>
<path d="M42.5 35V36.2001H48.7001V9.00005H42.5V10.2C40.8104 8.98079 38.7836 8.31683 36.7001 8.30005C29.7001 8.30005 24.3 14.7 24.3 22.6C24.3 30.5 29.6001 36.9001 36.7001 36.9001C38.7861 36.8988 40.8176 36.2334 42.5 35ZM30.6 22.7C30.6 18.4 33.1 15 36.6 15C40.1 15 42.5 18.4 42.5 22.7C42.5 27 40.1 30.4 36.6 30.4C33.1 30.4 30.6 27 30.6 22.7Z" fill="white" fill-opacity="0.5"/>
<path d="M22.3 13.9C22.2974 10.7977 21.0638 7.82333 18.8702 5.62973C16.6766 3.43612 13.7022 2.2026 10.6 2.19995H0V36.2H6.5V25.7H11L18.9 36.2H27L17.4 23.5C18.932 22.4151 20.1781 20.975 21.0315 19.303C21.8849 17.631 22.3202 15.777 22.3 13.9ZM10.7 19.2999H6.5V8.69995H10.7C12.1056 8.69995 13.4537 9.25834 14.4477 10.2523C15.4416 11.2462 16 12.5943 16 14C16 15.4056 15.4416 16.7537 14.4477 17.7476C13.4537 18.7416 12.1056 19.2999 10.7 19.2999Z" fill="white" fill-opacity="0.5"/>
</g>
<defs>
<clipPath id="clip0_822_2522">
<rect width="166" height="49.4" fill="white"/>
</clipPath>
</defs>
</svg>
