<svg width="88" height="28" viewBox="0 0 88 28" fill="none" xmlns="http://www.w3.org/2000/svg">
<g clip-path="url(#clip0_822_2510)">
<path d="M37.77 0L23 10.92C22.2844 8.2174 20.6822 5.83333 18.45 4.15C16.1686 2.42628 13.3894 1.48937 10.53 1.48H0V26.54H10.57C13.4524 26.5923 16.2691 25.6769 18.57 23.94C20.7944 22.2419 22.3602 19.8243 23 17.1L37.77 28L52.5 17.1V26.54H69.12V21.45H58.12V1.45H52.12V10.9L38.12 21.81L35.12 19.27L41.92 14.18L49.1 8.73L44.94 5.46L31 16L28 13.46L42 3.28L37.77 0ZM5.66 6.55H10.19C11.1233 6.54802 12.0466 6.74222 12.9 7.12C13.7582 7.50268 14.5355 8.04574 15.19 8.72C15.8671 9.41976 16.4065 10.2407 16.78 11.14C17.5299 13.0421 17.5299 15.1579 16.78 17.06C16.437 17.96 15.9282 18.7876 15.28 19.5C14.6434 20.2157 13.8676 20.7941 13 21.2C12.0977 21.6184 11.1146 21.8335 10.12 21.83H5.66V6.56V6.55ZM88 21.45V26.54H71.38V1.46H77.43V21.46H88V21.45Z" fill="white" fill-opacity="0.5"/>
</g>
<defs>
<clipPath id="clip0_822_2510">
<rect width="88" height="28" fill="white"/>
</clipPath>
</defs>
</svg>
