<svg width="148" height="42" viewBox="0 0 148 42" fill="none" xmlns="http://www.w3.org/2000/svg">
<mask id="mask0_822_2460" style="mask-type:luminance" maskUnits="userSpaceOnUse" x="0" y="0" width="148" height="42">
<path d="M147.567 0.786133H0.0507812V41.1324H147.567V0.786133Z" fill="white"/>
</mask>
<g mask="url(#mask0_822_2460)">
<path d="M31.2696 9.10447C28.884 7.99021 26.3331 7.18041 23.6663 6.7193C23.3388 7.31042 22.9562 8.1055 22.6924 8.73798C19.8575 8.31237 17.0487 8.31237 14.2659 8.73798C14.0021 8.1055 13.6108 7.31042 13.2804 6.7193C10.6107 7.18041 8.05693 7.99318 5.67131 9.11037C0.859484 16.3692 -0.444922 23.4478 0.207283 30.4258C3.39874 32.8051 6.49164 34.2504 9.53234 35.1961C10.2831 34.1646 10.9527 33.0681 11.5295 31.9125C10.4309 31.4958 9.37871 30.9815 8.38449 30.3845C8.64826 30.1894 8.90626 29.9855 9.15552 29.7756C15.2196 32.6071 21.8083 32.6071 27.7999 29.7756C28.0521 29.9855 28.31 30.1894 28.5709 30.3845C27.5737 30.9844 26.5186 31.4987 25.4201 31.9155C25.9969 33.0681 26.6636 34.1676 27.4172 35.1991C30.4609 34.2533 33.5566 32.808 36.7481 30.4258C37.5134 22.3365 35.4408 15.323 31.2696 9.10447ZM12.3557 26.1344C10.5353 26.1344 9.04246 24.4379 9.04246 22.372C9.04246 20.306 10.5034 18.6066 12.3557 18.6066C14.208 18.6066 15.7007 20.3031 15.6689 22.372C15.6718 24.4379 14.208 26.1344 12.3557 26.1344ZM24.5997 26.1344C22.7794 26.1344 21.2865 24.4379 21.2865 22.372C21.2865 20.306 22.7474 18.6066 24.5997 18.6066C26.452 18.6066 27.9448 20.3031 27.9129 22.372C27.9129 24.4379 26.452 26.1344 24.5997 26.1344Z" fill="white" fill-opacity="0.5"/>
<path d="M49.5742 13.9846H57.4874C59.395 13.9846 61.0066 14.289 62.3287 14.8949C63.6472 15.5008 64.6359 16.3461 65.2911 17.4278C65.9459 18.5096 66.2763 19.7479 66.2763 21.143C66.2763 22.5084 65.9342 23.7468 65.2502 24.8551C64.5662 25.9664 63.5255 26.8443 62.1256 27.4915C60.7257 28.1388 58.9919 28.4639 56.9196 28.4639H49.5742V13.9846ZM56.8382 24.7842C58.1224 24.7842 59.1111 24.4562 59.8007 23.803C60.4908 23.1468 60.8358 22.2543 60.8358 21.1223C60.8358 20.073 60.5282 19.2366 59.9139 18.61C59.2995 17.9834 58.369 17.6672 57.1252 17.6672H54.6497V24.7842H56.8382Z" fill="white" fill-opacity="0.5"/>
<path d="M78.1265 28.4456C77.0308 28.156 76.0421 27.7363 75.1641 27.1836V23.7493C75.8279 24.2723 76.7175 24.7039 77.8335 25.0438C78.9495 25.3807 80.0281 25.5492 81.0713 25.5492C81.5583 25.5492 81.9266 25.4841 82.1756 25.3541C82.4252 25.2241 82.55 25.0674 82.55 24.8871C82.55 24.6802 82.4833 24.5088 82.3469 24.3699C82.2105 24.231 81.9468 24.1157 81.5558 24.0182L79.1207 23.4596C77.7264 23.1286 76.7377 22.6704 76.1497 22.0823C75.5611 21.4971 75.2681 20.7286 75.2681 19.777C75.2681 18.976 75.5233 18.2815 76.0396 17.6874C76.5523 17.0933 77.2828 16.6352 78.2306 16.313C79.1788 15.9879 80.2857 15.8254 81.5583 15.8254C82.6945 15.8254 83.7352 15.9495 84.6834 16.1978C85.6312 16.4461 86.4137 16.7623 87.0371 17.1494V20.3976C86.3991 20.0105 85.6685 19.706 84.834 19.4755C84.0019 19.2479 83.1471 19.1356 82.2656 19.1356C80.993 19.1356 80.3585 19.3572 80.3585 19.7976C80.3585 20.0046 80.457 20.1582 80.654 20.2617C80.851 20.3651 81.2132 20.4715 81.7381 20.5838L83.767 20.9562C85.0921 21.1897 86.0803 21.6006 86.7295 22.1857C87.3791 22.771 87.7035 23.6369 87.7035 24.7837C87.7035 26.0398 87.1674 27.0358 86.0919 27.7747C85.0163 28.5136 83.4917 28.883 81.5148 28.883C80.3524 28.8801 79.2223 28.7353 78.1265 28.4456Z" fill="white" fill-opacity="0.5"/>
<path d="M92.4914 28.0119C91.3295 27.4326 90.451 26.6465 89.8654 25.6534C89.2799 24.6603 88.9844 23.5431 88.9844 22.3018C88.9844 21.0605 89.2885 19.9492 89.8973 18.9709C90.506 17.9926 91.3987 17.2241 92.5758 16.6655C93.7524 16.1069 95.1583 15.8291 96.7962 15.8291C98.825 15.8291 100.509 16.2636 101.849 17.1325V20.9186C101.376 20.5875 100.825 20.3186 100.196 20.1117C99.5672 19.9048 98.8947 19.8014 98.1759 19.8014C96.9179 19.8014 95.9353 20.0349 95.225 20.5048C94.5147 20.9747 94.1586 21.5865 94.1586 22.3461C94.1586 23.0909 94.5031 23.6998 95.1932 24.1786C95.8833 24.6544 96.8831 24.8938 98.1961 24.8938C98.8715 24.8938 99.5384 24.7933 100.196 24.5953C100.851 24.3943 101.417 24.149 101.889 23.8593V27.5213C100.402 28.4316 98.6775 28.8867 96.7148 28.8867C95.0629 28.8808 93.6539 28.5912 92.4914 28.0119Z" fill="white" fill-opacity="0.5"/>
<path d="M106.908 28.0115C105.737 27.4323 104.844 26.6402 104.229 25.6323C103.615 24.6245 103.305 23.5014 103.305 22.26C103.305 21.0187 103.612 19.9104 104.229 18.938C104.847 17.9656 105.734 17.2031 106.899 16.6504C108.061 16.0977 109.45 15.8228 111.058 15.8228C112.667 15.8228 114.056 16.0977 115.218 16.6504C116.381 17.2031 117.268 17.9597 117.876 18.9262C118.485 19.8927 118.789 21.001 118.789 22.2571C118.789 23.4984 118.485 24.6215 117.876 25.6293C117.268 26.6372 116.378 27.4293 115.207 28.0086C114.036 28.5879 112.653 28.8775 111.056 28.8775C109.458 28.8775 108.076 28.5908 106.908 28.0115ZM113.073 24.3407C113.566 23.8383 113.815 23.1733 113.815 22.3458C113.815 21.5182 113.569 20.8591 113.073 20.3714C112.581 19.8808 111.908 19.6355 111.056 19.6355C110.189 19.6355 109.51 19.8808 109.015 20.3714C108.522 20.8621 108.276 21.5182 108.276 22.3458C108.276 23.1733 108.522 23.8383 109.015 24.3407C109.508 24.8432 110.189 25.0974 111.056 25.0974C111.908 25.0944 112.581 24.8432 113.073 24.3407Z" fill="white" fill-opacity="0.5"/>
<path d="M130.981 16.5915V21.0604C130.465 20.7145 129.799 20.5431 128.973 20.5431C127.891 20.5431 127.056 20.8771 126.476 21.5451C125.894 22.2131 125.604 23.2534 125.604 24.6602V28.467H120.633V16.364H125.503V20.2121C125.772 18.8052 126.21 17.7679 126.813 17.0969C127.413 16.429 128.189 16.095 129.135 16.095C129.851 16.095 130.465 16.2606 130.981 16.5915Z" fill="white" fill-opacity="0.5"/>
<path d="M147.499 13.5709V28.4669H142.527V25.7567C142.107 26.7764 141.469 27.5537 140.612 28.0857C139.753 28.6148 138.692 28.8808 137.434 28.8808C136.31 28.8808 135.33 28.6029 134.492 28.0443C133.655 27.4857 133.008 26.7203 132.553 25.7479C132.101 24.7755 131.872 23.676 131.872 22.4465C131.858 21.1786 132.098 20.0407 132.594 19.0328C133.087 18.025 133.785 17.2388 134.684 16.6743C135.582 16.1098 136.608 15.826 137.759 15.826C140.128 15.826 141.716 16.8752 142.527 18.9707V13.5709H147.499ZM141.786 24.2583C142.293 23.7558 142.545 23.1026 142.545 22.3046C142.545 21.5332 142.298 20.9037 141.806 20.4219C141.313 19.9402 140.637 19.6978 139.788 19.6978C138.95 19.6978 138.281 19.9431 137.779 20.4337C137.278 20.9244 137.029 21.5598 137.029 22.346C137.029 23.1322 137.278 23.7736 137.779 24.2701C138.281 24.7666 138.942 25.0149 139.768 25.0149C140.605 25.0119 141.278 24.7607 141.786 24.2583Z" fill="white" fill-opacity="0.5"/>
<path d="M70.4668 17.6526C71.8353 17.6526 72.9452 16.6364 72.9452 15.3828C72.9452 14.1291 71.8353 13.1129 70.4668 13.1129C69.0977 13.1129 67.9883 14.1291 67.9883 15.3828C67.9883 16.6364 69.0977 17.6526 70.4668 17.6526Z" fill="white" fill-opacity="0.5"/>
<path d="M67.9883 19.2151C69.5069 19.883 71.3913 19.9126 72.9447 19.2151V28.531H67.9883V19.2151Z" fill="white" fill-opacity="0.5"/>
</g>
</svg>
