<svg width="89" height="28" viewBox="0 0 89 28" fill="none" xmlns="http://www.w3.org/2000/svg">
<g clip-path="url(#clip0_822_2512)">
<path fill-rule="evenodd" clip-rule="evenodd" d="M88.986 4.14001C89.083 4.52101 88.656 4.88701 88.434 5.16701C86.571 7.50001 84.505 10.26 82.023 12.032C82.202 12.96 82.107 14.192 81.783 14.872C82.433 15.7 83.123 16.484 83.525 17.556C82.996 20.356 81.768 22.528 79.805 23.948C77.889 25.332 75.3 25.878 72.363 26.552C66.684 27.857 57.34 29.144 53.127 25.762C48.565 28.43 39.346 28.782 35.079 25.604C32.046 29.431 20.081 29.095 21.861 21.501C19.642 23.176 16.361 25.485 13.231 26.789C9.60104 28.299 2.72704 28.129 3.41404 23.001C3.49704 22.39 3.75604 22.045 4.04804 21.501C2.98604 19.654 2.31504 18.372 1.67304 16.766C1.05804 15.226 0.120039 13.473 0.0100389 11.322C-0.219961 6.74601 3.35804 3.84501 6.90004 2.48201C8.70704 1.78701 10.175 0.780008 11.965 0.275008C14.64 -0.484992 16.933 0.982008 17.11 3.43101C20.22 2.51101 24.007 1.49601 28.114 2.09001C31.384 -0.444993 37.77 1.12101 41.967 2.32501C42.916 2.59801 44.193 3.30301 44.896 3.27301C45.491 3.24901 46.566 2.44401 47.19 2.16801C50.135 0.866008 53.985 -0.519992 58.194 0.195008C58.991 0.329008 59.72 0.750008 60.568 0.825008C61.144 0.878008 61.848 0.698008 62.468 0.669008C72.305 0.190008 80.494 2.82201 88.986 4.14001ZM61.44 3.82601C60.435 3.94601 59.722 5.04201 59.065 5.40401C59.113 5.39901 59.158 5.39101 59.143 5.32401C59.263 4.78601 59.493 4.35701 59.539 3.74701C54.271 1.89701 49.144 4.60101 45.371 6.66601C42.353 8.31601 39.661 10.256 37.771 12.189C38.454 11.029 39.179 9.88101 39.988 8.79701C40.808 7.69601 41.721 6.70001 42.443 5.72001C40.865 5.30801 39.283 4.87301 37.691 4.53501C35.429 4.05501 32.283 3.26001 30.409 4.29901C29.867 4.59901 29.423 5.33801 28.905 5.40401C28.476 5.45901 27.77 5.14701 27.242 5.08901C25.308 4.87401 23.528 5.05301 21.78 5.40401C20.143 5.73101 16.682 6.31101 16.238 7.84901C15.954 8.83701 16.588 9.79401 16.476 10.771C16.368 11.731 15.442 13.003 14.972 13.769C14.397 14.709 13.812 15.541 12.834 15.978C12.242 13.038 12.886 10.423 13.389 7.93001C13.699 6.39301 14.324 4.82001 13.786 3.27301C12.276 3.06401 11.005 4.25501 9.51004 4.85001C6.70204 5.97001 3.57504 6.99101 3.17804 10.217C2.95404 12.034 3.63904 13.189 4.12804 14.479C5.09432 17.0601 6.39906 19.5014 8.00804 21.739C7.58804 22.507 6.60104 22.707 6.50204 23.789C6.94904 24.419 7.87904 24.503 8.79804 24.5C11.454 24.494 13.632 23.162 15.605 22.054C19.901 19.644 22.787 15.935 25.818 12.427C26.35 11.81 26.788 11.067 27.481 10.691C28.161 13.808 26.838 15.475 25.896 18.029C25.533 19.013 24.388 22.093 24.946 23.552C25.558 25.157 30.769 25.227 32.15 24.186C32.846 23.661 33.123 22.476 33.497 21.739C33.974 20.791 34.387 19.973 34.763 19.135C34.784 22.592 37.36 23.607 40.145 24.343C46.065 25.903 52.035 23.116 55.265 21.188C54.861 23.749 55.859 24.006 57.878 24.423C63.098 25.497 68.355 24.258 72.601 23.238C76.494 22.304 79.624 21.644 80.201 17.792C79.578 17.255 78.021 17.322 76.956 17.478C73.816 17.936 70.776 19.518 66.586 19.213C65.821 19.158 64.17 18.892 64.051 18.425C63.867 17.697 65.175 17.187 66.271 17.005C69.411 16.475 73.951 17.01 76.48 16.055C77.694 15.599 79.159 14.281 79.012 12.821C78.916 11.835 77.625 11.319 76.4 11.244C72.936 11.028 70.46 13.044 66.825 12.348C67.279 11.776 67.361 10.833 67.931 10.376C70.59 10.32 73.173 10.846 75.689 10.691C79.187 10.473 81.159 9.00401 82.814 7.06101C82.991 6.85101 83.435 6.62601 83.289 6.27301C77.213 5.35101 68.931 2.91001 61.44 3.82601ZM49.407 9.90001C49.017 11.67 48.202 13.696 47.745 15.66C50.261 15.696 52.915 15.184 55.502 15.029C55.852 14.563 56.024 13.919 56.215 13.293C56.734 14.025 57.099 15.395 56.611 16.449C52.682 16.394 49.858 19.602 46.004 19.605C44.278 19.607 42.811 18.618 43.628 16.685C44.782 13.96 47.644 12.056 49.407 9.90001ZM58.59 6.98001C59.33 7.82101 60.95 7.78501 61.914 8.40201C60.613 8.73501 58.975 8.73301 57.797 9.18901C58.075 8.46501 58.324 7.71401 58.59 6.98001Z" fill="white" fill-opacity="0.5"/>
</g>
<defs>
<clipPath id="clip0_822_2512">
<rect width="89" height="28" fill="white"/>
</clipPath>
</defs>
</svg>
